<svg width="54" height="50" viewBox="0 0 54 50" fill="none" xmlns="http://www.w3.org/2000/svg">
<path d="M16.5497 25C13.5363 25.093 11.0716 26.2835 9.15569 28.5714H5.41685C3.89156 28.5714 2.60807 28.1948 1.56641 27.4414C0.52474 26.6881 0.00390625 25.5859 0.00390625 24.135C0.00390625 17.5688 1.15718 14.2857 3.46373 14.2857C3.57533 14.2857 3.97991 14.481 4.67746 14.8717C5.375 15.2623 6.28181 15.6576 7.39788 16.0575C8.51395 16.4574 9.62072 16.6574 10.7182 16.6574C11.9645 16.6574 13.2015 16.4435 14.4291 16.0156C14.3361 16.7039 14.2896 17.3177 14.2896 17.8571C14.2896 20.4427 15.043 22.8237 16.5497 25ZM46.4325 42.7734C46.4325 45.0056 45.7535 46.768 44.3956 48.0608C43.0378 49.3536 41.2334 50 38.9827 50H14.5965C12.3458 50 10.5415 49.3536 9.18359 48.0608C7.82571 46.768 7.14676 45.0056 7.14676 42.7734C7.14676 41.7876 7.17932 40.825 7.24442 39.8856C7.30952 38.9462 7.43973 37.9325 7.63504 36.8443C7.83036 35.7561 8.07682 34.747 8.37444 33.817C8.67206 32.8869 9.07199 31.9801 9.57422 31.0965C10.0765 30.213 10.6531 29.4596 11.3041 28.8365C11.9552 28.2134 12.7504 27.7158 13.6897 27.3438C14.6291 26.9717 15.6661 26.7857 16.8008 26.7857C16.9868 26.7857 17.3867 26.9857 18.0006 27.3856C18.6144 27.7855 19.2933 28.232 20.0374 28.7249C20.7814 29.2178 21.7766 29.6642 23.0229 30.0642C24.2692 30.4641 25.5247 30.6641 26.7896 30.6641C28.0545 30.6641 29.3101 30.4641 30.5564 30.0642C31.8026 29.6642 32.7978 29.2178 33.5419 28.7249C34.2859 28.232 34.9648 27.7855 35.5787 27.3856C36.1925 26.9857 36.5924 26.7857 36.7785 26.7857C37.9131 26.7857 38.9501 26.9717 39.8895 27.3438C40.8289 27.7158 41.6241 28.2134 42.2751 28.8365C42.9262 29.4596 43.5028 30.213 44.005 31.0965C44.5073 31.9801 44.9072 32.8869 45.2048 33.817C45.5024 34.747 45.7489 35.7561 45.9442 36.8443C46.1395 37.9325 46.2697 38.9462 46.3348 39.8856C46.3999 40.825 46.4325 41.7876 46.4325 42.7734ZM17.861 7.14286C17.861 9.11458 17.1635 10.798 15.7684 12.1931C14.3733 13.5882 12.6899 14.2857 10.7182 14.2857C8.74647 14.2857 7.06306 13.5882 5.66797 12.1931C4.27288 10.798 3.57533 9.11458 3.57533 7.14286C3.57533 5.17113 4.27288 3.48772 5.66797 2.09263C7.06306 0.697545 8.74647 0 10.7182 0C12.6899 0 14.3733 0.697545 15.7684 2.09263C17.1635 3.48772 17.861 5.17113 17.861 7.14286ZM37.5039 17.8571C37.5039 20.8147 36.4576 23.3398 34.365 25.4325C32.2723 27.5251 29.7472 28.5714 26.7896 28.5714C23.832 28.5714 21.3069 27.5251 19.2143 25.4325C17.1217 23.3398 16.0753 20.8147 16.0753 17.8571C16.0753 14.8996 17.1217 12.3744 19.2143 10.2818C21.3069 8.18917 23.832 7.14286 26.7896 7.14286C29.7472 7.14286 32.2723 8.18917 34.365 10.2818C36.4576 12.3744 37.5039 14.8996 37.5039 17.8571ZM53.5753 24.135C53.5753 25.5859 53.0545 26.6881 52.0128 27.4414C50.9712 28.1948 49.6877 28.5714 48.1624 28.5714H44.4235C42.5076 26.2835 40.043 25.093 37.0296 25C38.5363 22.8237 39.2896 20.4427 39.2896 17.8571C39.2896 17.3177 39.2431 16.7039 39.1501 16.0156C40.3778 16.4435 41.6148 16.6574 42.861 16.6574C43.9585 16.6574 45.0653 16.4574 46.1814 16.0575C47.2974 15.6576 48.2042 15.2623 48.9018 14.8717C49.5993 14.481 50.0039 14.2857 50.1155 14.2857C52.4221 14.2857 53.5753 17.5688 53.5753 24.135ZM50.0039 7.14286C50.0039 9.11458 49.3064 10.798 47.9113 12.1931C46.5162 13.5882 44.8328 14.2857 42.861 14.2857C40.8893 14.2857 39.2059 13.5882 37.8108 12.1931C36.4157 10.798 35.7182 9.11458 35.7182 7.14286C35.7182 5.17113 36.4157 3.48772 37.8108 2.09263C39.2059 0.697545 40.8893 0 42.861 0C44.8328 0 46.5162 0.697545 47.9113 2.09263C49.3064 3.48772 50.0039 5.17113 50.0039 7.14286Z" fill="white"/>
</svg>
